<svg width="32" height="32" viewBox="0 0 32 32" fill="none" xmlns="http://www.w3.org/2000/svg">
  <rect width="32" height="32" rx="8" fill="#6B7280"/>
  <path d="M16 10C13.24 10 11 12.24 11 15C11 17.76 13.24 20 16 20C18.76 20 21 17.76 21 15C21 12.24 18.76 10 16 10ZM16 18C14.34 18 13 16.66 13 15C13 13.34 14.34 12 16 12C17.66 12 19 13.34 19 15C19 16.66 17.66 18 16 18Z" fill="white"/>
  <path d="M16 21C12.69 21 10 18.31 10 15C10 11.69 12.69 9 16 9C19.31 9 22 11.69 22 15C22 18.31 19.31 21 16 21ZM16 11C13.79 11 12 12.79 12 15C12 17.21 13.79 19 16 19C18.21 19 20 17.21 20 15C20 12.79 18.21 11 16 11Z" fill="white" fill-opacity="0.4"/>
</svg>
